<svg width="0" height="0" class="hidden">
  <symbol xmlns="http://www.w3.org/2000/svg" viewBox="-2 1 511 511.999" id="add-to-cart">
    <path d="M194.434 169.953a14.997 14.997 0 003.304 16.363l80.98 80.332c2.923 2.903 6.743 4.352 10.563 4.352s7.64-1.45 10.563-4.352l80.98-80.332a15.004 15.004 0 003.305-16.363 14.996 14.996 0 00-13.867-9.285H343.55V15c0-8.285-6.715-15-15-15h-80.332c-8.285 0-15 6.715-15 15v145.668h-24.914a14.997 14.997 0 00-13.871 9.285zm0 0"></path>
    <path d="M495.426 97.145c-9.492-10.84-23.02-16.813-38.094-16.813h-83.781v50.453c16.949 1.223 31.765 11.84 38.316 27.742 6.973 16.926 3.082 36.192-9.914 49.086L320.97 287.95c-8.486 8.417-19.74 13.05-31.69 13.05-11.953 0-23.207-4.637-31.691-13.055l-80.985-80.332c-12.992-12.894-16.882-32.16-9.91-49.086 6.317-15.34 20.325-25.761 36.524-27.578V80.332H92.902l-3.668-27.5C85.281 23.207 64.656 0 42.277 0H15.5C7.215 0 .5 6.715.5 15s6.715 15 15 15h26.777c4.813 0 15.004 10.176 17.22 26.797l5.398 40.488c.003.012 0 .02.003.031l15.98 119.871 21.556 161.649c1.894 14.195 9.187 27.484 20.535 37.422 8.414 7.367 18.367 12.273 28.789 14.32a54.819 54.819 0 00-6.656 26.254c0 30.418 24.746 55.168 55.164 55.168s55.168-24.75 55.168-55.168a54.806 54.806 0 00-6.102-25.168h78.602a54.808 54.808 0 00-6.102 25.168C321.832 487.25 346.582 512 377 512s55.168-24.75 55.168-55.168a54.806 54.806 0 00-6.102-25.168h39.301c8.285 0 15-6.715 15-15 0-8.281-6.715-15-15-15h-302.59c-14.652 0-28.672-12.27-30.609-26.797l-3.137-23.535H425.2c14.32 0 28.457-5.473 39.809-15.41 11.351-9.934 18.644-23.227 20.535-37.422l21.516-161.367c1.992-14.942-2.141-29.145-11.633-39.988zm0 0"></path>
  </symbol>
  <symbol xmlns="http://www.w3.org/2000/svg" viewBox="0 0 24 24" id="menu (1)">
    <path d="M5 0H1a1 1 0 00-1 1v4a1 1 0 001 1h4a1 1 0 001-1V1a1 1 0 00-1-1zm0 9H1a1 1 0 00-1 1v4a1 1 0 001 1h4a1 1 0 001-1v-4a1 1 0 00-1-1zm0 9H1a1 1 0 00-1 1v4a1 1 0 001 1h4a1 1 0 001-1v-4a1 1 0 00-1-1zm9-18h-4a1 1 0 00-1 1v4a1 1 0 001 1h4a1 1 0 001-1V1a1 1 0 00-1-1zm0 9h-4a1 1 0 00-1 1v4a1 1 0 001 1h4a1 1 0 001-1v-4a1 1 0 00-1-1zm0 9h-4a1 1 0 00-1 1v4a1 1 0 001 1h4a1 1 0 001-1v-4a1 1 0 00-1-1zm9-18h-4a1 1 0 00-1 1v4a1 1 0 001 1h4a1 1 0 001-1V1a1 1 0 00-1-1zm0 9h-4a1 1 0 00-1 1v4a1 1 0 001 1h4a1 1 0 001-1v-4a1 1 0 00-1-1zm0 9h-4a1 1 0 00-1 1v4a1 1 0 001 1h4a1 1 0 001-1v-4a1 1 0 00-1-1z"></path>
  </symbol>
  <symbol xmlns="http://www.w3.org/2000/svg" viewBox="0 0 256.8 256.8" id="music-note-on-folder">
    <path d="M233.787 42.137a7.803 7.803 0 00-.419-1.321c-.094-.217-.229-.414-.342-.621-.141-.264-.27-.541-.436-.784-.16-.233-.357-.44-.538-.653-.166-.189-.311-.396-.492-.572-.191-.187-.409-.34-.616-.51-.207-.164-.404-.35-.632-.502-.207-.132-.435-.233-.642-.344-.26-.145-.503-.298-.771-.404-.265-.111-.544-.176-.813-.254-.243-.075-.472-.166-.725-.212-.425-.091-.86-.111-1.29-.132-.119-.005-.223-.034-.347-.034h-.01c-.285 0-.575.055-.87.085-.27.031-.549.039-.813.096h-.01l-69.269 14.618a8.308 8.308 0 00-6.586 8.125v57.25c-4.691-1.367-9.994-1.629-15.395-.477-14.794 3.138-24.694 15.562-22.108 27.742 2.584 12.168 16.677 19.5 31.471 16.353 13.085-2.776 22.317-12.801 22.504-23.499.088-.477.14-.952.14-1.439V65.461l52.646-11.115v47.007c-4.682-1.367-9.989-1.628-15.385-.489-14.799 3.151-24.699 15.568-22.115 27.734 2.589 12.185 16.678 19.517 31.467 16.368 13.085-2.771 22.318-12.801 22.504-23.506.088-.477.141-.956.141-1.442V44.082c0-.264-.053-.528-.083-.79-.026-.301-.036-.608-.099-.901v-.01c-.01-.086-.046-.153-.067-.244z"></path>
    <path d="M211.547 71.438c-1.336-3.404-6.068-6.268-12.629-7.959l-29.412 6.209v15.27h42.041v-13.52zM15.148 45.498v14.747H7.57C3.387 60.245 0 65.001 0 70.85v138.859c0 14.644 4.21 15.41 9.401 1.719l47.98-126.476h84.909V61.83H90.855V46.288c0-8.583-11.871-15.544-26.512-15.544H41.661c-14.646.009-26.513 6.609-26.513 14.754zm173.915 49.057h-13.266v11.301c3.346-4.556 7.882-8.453 13.266-11.301z"></path>
    <path d="M255.302 119.467c4.091-11.231-.486-20.591-10.242-23.68v24.236c0 .8-.057 1.605-.165 2.403-.679 15.462-13.536 29.226-30.872 32.912a44.157 44.157 0 01-9.072.963c-12.614 0-23.644-5.51-29.971-14.25-2.9 13.344-14.784 24.622-30.23 27.899a43.66 43.66 0 01-9.062.963c-17.414 0-31.799-10.485-34.986-25.491-1.893-8.912.515-18.419 6.618-26.067 5.706-7.159 14.11-12.223 23.659-14.253a44.543 44.543 0 016.998-.901V94.55H62.309l-38.75 106.589c-5 13.77 2.809 24.918 17.456 24.918h149.019c14.639 0 30.566-11.159 35.573-24.918l29.695-81.672z"></path>
  </symbol>
  <symbol xmlns="http://www.w3.org/2000/svg" viewBox="0 0 512 512" id="home">
    <path stroke="#fff" d="M498.195 222.695l-.035-.035L289.305 13.813C280.402 4.905 268.566 0 255.977 0c-12.59 0-24.426 4.902-33.332 13.809L13.898 222.55c-.07.07-.14.144-.21.215-18.282 18.386-18.25 48.218.09 66.558 8.378 8.383 19.445 13.238 31.277 13.746.48.047.965.07 1.453.07h8.324v153.7C54.832 487.254 79.578 512 110 512h81.71c8.282 0 15-6.715 15-15V376.5c0-13.879 11.29-25.168 25.169-25.168h48.195c13.88 0 25.168 11.29 25.168 25.168V497c0 8.285 6.715 15 15 15h81.711c30.422 0 55.168-24.746 55.168-55.16v-153.7h7.719c12.586 0 24.422-4.902 33.332-13.808 18.36-18.371 18.367-48.254.023-66.637zm0 0"></path>
  </symbol>
  <symbol xmlns="http://www.w3.org/2000/svg" viewBox="0 0 45.532 45.532" id="profile-user">
    <path d="M22.766.001C10.194.001 0 10.193 0 22.766s10.193 22.765 22.766 22.765c12.574 0 22.766-10.192 22.766-22.765S35.34.001 22.766.001zm0 6.807a7.53 7.53 0 11.001 15.06 7.53 7.53 0 01-.001-15.06zm-.005 32.771a16.708 16.708 0 01-10.88-4.012 3.209 3.209 0 01-1.126-2.439c0-4.217 3.413-7.592 7.631-7.592h8.762c4.219 0 7.619 3.375 7.619 7.592a3.2 3.2 0 01-1.125 2.438 16.702 16.702 0 01-10.881 4.013z"></path>
  </symbol>
</svg>