<?xml version="1.0" encoding="UTF-8"?>
<!DOCTYPE svg PUBLIC "-//W3C//DTD SVG 1.1//EN" "http://www.w3.org/Graphics/SVG/1.1/DTD/svg11.dtd">
<!-- Creator: CorelDRAW X6 -->
<svg xmlns="http://www.w3.org/2000/svg" xml:space="preserve" width="2.36111in" height="1in" version="1.1" style="shape-rendering:geometricPrecision; text-rendering:geometricPrecision; image-rendering:optimizeQuality; fill-rule:evenodd; clip-rule:evenodd"
viewBox="0 0 2361 1000"
 xmlns:xlink="http://www.w3.org/1999/xlink">
 <defs>
  <style type="text/css">
   <![CDATA[
    .fil0 {fill:#1E65AB;fill-rule:nonzero}
    .fil1 {fill:#222124;fill-rule:nonzero}
   ]]>
  </style>
 </defs>
 <g id="Layer_x0020_1">
  <metadata id="CorelCorpID_0Corel-Layer"/>
  <polygon class="fil0" points="0,307 69,307 69,-9 0,-9 "/>
  <polygon class="fil0" points="363,-9 363,33 540,33 352,279 352,307 624,307 631,264 443,264 630,18 630,-9 "/>
  <path class="fil0" d="M1025 -9l-151 316 61 0 38 -94 122 0 35 94 76 0 -130 -316 -51 0zm11 65l44 119 -92 0 48 -119z"/>
  <polygon class="fil1" points="0,780 2362,780 2362,766 0,766 "/>
  <path class="fil1" d="M68 635c29,0 42,-26 42,-50 0,-26 -16,-50 -42,-50 -27,0 -42,25 -42,50 0,24 13,50 42,50zm0 -121c41,0 68,29 68,70 0,38 -28,70 -68,70 -41,0 -68,-32 -68,-70 0,-41 27,-70 68,-70z"/>
  <path class="fil1" d="M186 538l-32 0 0 -20 32 0 0 -12c0,-33 8,-54 45,-54 6,0 12,1 17,2l-1 20c-3,-1 -8,-2 -12,-2 -21,0 -24,14 -24,32l0 14 36 0 0 20 -36 0 0 114 -25 0 0 -114z"/>
  <polygon class="fil1" points="347,469 374,469 374,629 451,629 451,652 347,652 "/>
  <path class="fil1" d="M557 588c-5,0 -11,-1 -16,-1 -13,0 -47,2 -47,26 0,14 14,22 25,22 24,0 37,-15 37,-35l0 -12zm-73 -61c12,-7 27,-13 44,-13 38,0 54,19 54,56l0 56c0,15 1,22 1,26l-23 0 0 -17 -1 0c-6,8 -19,21 -42,21 -29,0 -49,-13 -49,-42 0,-34 37,-44 62,-44 10,0 17,0 26,1 0,-23 -8,-35 -33,-35 -14,0 -29,5 -39,14l-1 -21z"/>
  <path class="fil1" d="M688 535c-27,0 -40,26 -40,51 0,22 12,50 39,50 27,0 38,-30 37,-51 1,-24 -10,-50 -37,-50zm-64 -80l25 0 0 82 1 0c8,-12 21,-22 44,-22 39,0 58,32 58,68 0,37 -17,73 -58,73 -24,0 -39,-12 -46,-22l-1 0 0 19 -24 0 0 -197z"/>
  <path class="fil1" d="M843 635c29,0 42,-26 42,-50 0,-26 -16,-50 -42,-50 -27,0 -42,25 -42,50 0,24 13,50 42,50zm0 -121c41,0 68,29 68,70 0,38 -28,70 -68,70 -41,0 -68,-32 -68,-70 0,-41 27,-70 68,-70z"/>
  <path class="fil1" d="M945 518l23 0 0 21 1 0c7,-14 21,-24 35,-24 7,0 11,1 16,2l0 22c-4,-2 -9,-2 -14,-2 -22,0 -37,21 -37,55l0 61 -25 0 0 -134z"/>
  <polygon class="fil1" points="1124,469 1227,469 1227,492 1150,492 1150,545 1220,545 1220,569 1150,569 1150,629 1227,629 1227,652 1124,652 "/>
  <path class="fil1" d="M1352 541c-9,-4 -19,-6 -27,-6 -28,0 -43,25 -43,50 0,24 13,50 45,50 8,0 19,-3 27,-8l2 22c-10,5 -22,6 -31,6 -41,0 -68,-32 -68,-70 0,-41 27,-70 68,-70 10,0 23,2 30,5l-2 21z"/>
  <path class="fil1" d="M1443 635c29,0 42,-26 42,-50 0,-26 -16,-50 -42,-50 -27,0 -42,25 -42,50 0,24 13,50 42,50zm0 -121c41,0 68,29 68,70 0,38 -28,70 -68,70 -41,0 -68,-32 -68,-70 0,-41 27,-70 68,-70z"/>
  <path class="fil1" d="M1544 518l24 0 0 21 1 0c7,-15 25,-24 44,-24 35,0 50,22 50,58l0 80 -25 0 0 -70c0,-31 -7,-47 -28,-48 -28,0 -41,23 -41,55l0 62 -25 0 0 -134z"/>
  <path class="fil1" d="M1765 635c29,0 42,-26 42,-50 0,-26 -16,-50 -42,-50 -27,0 -42,25 -42,50 0,24 13,50 42,50zm0 -121c41,0 68,29 68,70 0,38 -28,70 -68,70 -41,0 -68,-32 -68,-70 0,-41 27,-70 68,-70z"/>
  <path class="fil1" d="M1866 518l23 0 0 20 1 0c10,-16 23,-23 43,-23 16,0 31,8 38,26 9,-19 29,-26 42,-26 34,0 47,22 47,51l0 86 -25 0 0 -80c0,-17 -4,-37 -24,-37 -25,0 -35,25 -35,50l0 68 -25 0 0 -80c0,-17 -4,-37 -24,-37 -25,0 -35,25 -35,50l0 68 -25 0 0 -134z"/>
  <path class="fil1" d="M2103 518l25 0 0 134 -25 0 0 -134zm26 -30l-28 0 0 -28 28 0 0 28z"/>
  <path class="fil1" d="M2258 541c-9,-4 -19,-6 -27,-6 -28,0 -43,25 -43,50 0,24 13,50 45,50 8,0 19,-3 27,-8l2 22c-10,5 -22,6 -31,6 -41,0 -68,-32 -68,-70 0,-41 27,-70 68,-70 10,0 23,2 30,5l-2 21z"/>
  <path class="fil1" d="M2280 626c10,6 24,9 31,9 11,0 25,-5 25,-19 0,-24 -58,-22 -58,-60 0,-28 21,-41 47,-41 12,0 21,2 31,5l-2 22c-6,-3 -20,-7 -26,-7 -13,0 -24,5 -24,16 0,27 58,20 58,62 0,29 -23,42 -47,42 -13,0 -26,-1 -37,-7l1 -22z"/>
  <polygon class="fil1" points="1382,303 1408,303 1408,121 1382,121 "/>
  <path class="fil1" d="M1452 170l24 0 0 21 1 0c7,-15 25,-24 44,-24 34,0 50,21 50,57l0 79 -25 0 0 -69c0,-31 -7,-46 -28,-47 -28,0 -40,22 -40,55l0 62 -25 0 0 -133z"/>
  <path class="fil1" d="M1602 277c10,6 24,9 31,9 11,0 25,-5 25,-19 0,-24 -58,-22 -58,-60 0,-28 21,-41 47,-41 11,0 21,2 31,5l-2 21c-5,-3 -20,-7 -26,-7 -13,0 -24,5 -24,16 0,27 58,19 58,62 0,28 -23,41 -46,41 -13,0 -25,-1 -37,-7l1 -22z"/>
  <path class="fil1" d="M1784 190l-35 0 0 73c0,15 9,24 21,24 8,0 13,-2 17,-5l0 21c-5,2 -13,4 -21,4 -25,0 -41,-12 -41,-39l0 -78 -30 0 0 -20 30 0 0 -31 25 -8 0 39 35 0 0 20z"/>
  <path class="fil1" d="M1818 170l25 0 0 133 -25 0 0 -133zm26 -30l-28 0 0 -28 28 0 0 28z"/>
  <path class="fil1" d="M1958 190l-35 0 0 73c0,15 9,24 21,24 8,0 13,-2 17,-5l0 21c-5,2 -13,4 -21,4 -25,0 -41,-12 -41,-39l0 -78 -30 0 0 -20 30 0 0 -31 25 -8 0 39 35 0 0 20z"/>
  <path class="fil1" d="M2107 303l-24 0 0 -21 -1 0c-7,15 -25,24 -44,24 -34,0 -50,-21 -50,-57l0 -79 24 0 0 69c0,31 7,46 28,47 28,0 41,-22 41,-55l0 -62 24 0 0 133z"/>
  <path class="fil1" d="M2219 190l-35 0 0 73c0,15 9,24 21,24 8,0 13,-2 17,-5l0 21c-5,2 -13,4 -21,4 -25,0 -41,-12 -41,-39l0 -78 -30 0 0 -20 30 0 0 -31 25 -8 0 39 35 0 0 20z"/>
  <path class="fil1" d="M2336 224c0,-20 -12,-37 -33,-37 -24,0 -34,20 -36,37l69 0zm16 74c-9,3 -20,9 -42,9 -47,0 -69,-29 -69,-72 0,-39 25,-67 62,-67 44,0 59,32 59,75l-95 0c0,26 21,44 44,44 16,0 35,-8 41,-13l0 25z"/>
  <polygon class="fil1" points="0,970 13,970 13,877 0,877 "/>
  <path class="fil1" d="M36 902l12 0 0 11 0 0c4,-8 13,-12 22,-12 18,0 26,11 26,29l0 41 -13 0 0 -35c0,-16 -3,-24 -14,-24 -14,0 -21,12 -21,28l0 32 -13 0 0 -68z"/>
  <path class="fil1" d="M120 902l13 0 0 68 -13 0 0 -68zm13 -15l-14 0 0 -14 14 0 0 14z"/>
  <path class="fil1" d="M192 912l-18 0 0 37c0,8 5,12 11,12 4,0 7,-1 9,-2l0 11c-3,1 -7,2 -11,2 -13,0 -21,-6 -21,-20l0 -40 -15 0 0 -10 15 0 0 -16 13 -4 0 20 18 0 0 10z"/>
  <path class="fil1" d="M209 902l13 0 0 68 -13 0 0 -68zm13 -15l-14 0 0 -14 14 0 0 14z"/>
  <path class="fil1" d="M285 938c-3,0 -5,0 -8,0 -7,0 -24,1 -24,13 0,7 7,11 13,11 12,0 19,-8 19,-18l0 -6zm-37 -31c6,-4 14,-6 23,-6 20,0 27,10 27,28l0 28c0,8 0,11 1,13l-12 0 0 -9 0 0c-3,4 -10,10 -21,10 -15,0 -25,-6 -25,-21 0,-17 19,-22 32,-22 5,0 8,0 13,0 0,-12 -4,-18 -17,-18 -7,0 -15,3 -20,7l-1 -11z"/>
  <path class="fil1" d="M356 912l-18 0 0 37c0,8 5,12 11,12 4,0 7,-1 9,-2l0 11c-3,1 -7,2 -11,2 -13,0 -21,-6 -21,-20l0 -40 -15 0 0 -10 15 0 0 -16 13 -4 0 20 18 0 0 10z"/>
  <path class="fil1" d="M416 929c0,-10 -6,-19 -17,-19 -12,0 -17,10 -18,19l35 0zm8 38c-5,2 -10,4 -22,4 -24,0 -35,-15 -35,-37 0,-20 13,-35 32,-35 23,0 30,17 30,39l-49 0c0,14 11,23 22,23 8,0 18,-4 21,-7l0 13z"/>
  <path class="fil1" d="M474 962c14,0 20,-14 20,-25 0,-13 -7,-26 -20,-26 -14,0 -19,13 -19,25 0,11 5,26 19,26zm21 -1l0 0c-3,5 -11,11 -23,11 -21,0 -29,-18 -29,-37 0,-18 10,-35 29,-35 12,0 19,5 23,11l0 0 0 -42 13 0 0 101 -12 0 0 -10z"/>
  <path class="fil1" d="M598 910c-14,0 -20,13 -20,26 0,11 6,25 20,25 14,0 19,-15 19,-26 0,-12 -5,-25 -19,-25zm-33 -41l13 0 0 42 0 0c4,-6 11,-11 23,-11 20,0 30,16 30,35 0,19 -9,37 -29,37 -12,0 -20,-6 -23,-11l0 0 0 10 -12 0 0 -101z"/>
  <path class="fil1" d="M642 989c2,1 4,1 6,1 11,0 15,-16 15,-17 0,-1 -2,-5 -2,-7l-23 -64 14 0 18 57 0 0 19 -57 13 0 -25 70c-5,13 -10,28 -26,28 -4,0 -6,-1 -9,-1l1 -10z"/>
  <path class="fil1" d="M765 958l14 0c23,0 36,-11 36,-35 0,-22 -15,-35 -34,-35l-16 0 0 70zm-13 -82l28 0c28,0 50,17 50,46 0,31 -19,48 -50,48l-28 0 0 -94z"/>
  <path class="fil1" d="M893 929c0,-10 -6,-19 -17,-19 -12,0 -17,10 -18,19l35 0zm8 38c-5,2 -10,4 -22,4 -24,0 -35,-15 -35,-37 0,-20 13,-35 32,-35 23,0 30,17 30,39l-49 0c0,14 11,23 23,23 8,0 18,-4 21,-7l0 13z"/>
  <path class="fil1" d="M984 970l-12 0 0 -11 0 0c-4,8 -13,12 -22,12 -18,0 -26,-11 -26,-29l0 -41 13 0 0 35c0,16 3,24 14,24 14,0 21,-12 21,-28l0 -32 13 0 0 68z"/>
  <path class="fil1" d="M1041 912l-18 0 0 37c0,8 5,12 11,12 4,0 7,-1 9,-2l0 11c-3,1 -7,2 -11,2 -13,0 -21,-6 -21,-20l0 -40 -15 0 0 -10 15 0 0 -16 13 -4 0 20 18 0 0 10z"/>
  <path class="fil1" d="M1052 957c5,3 12,5 16,5 6,0 13,-2 13,-10 0,-12 -30,-11 -30,-31 0,-14 11,-21 24,-21 6,0 11,1 16,3l-1 11c-3,-2 -10,-3 -13,-3 -6,0 -12,3 -12,8 0,14 30,10 30,32 0,15 -12,21 -24,21 -6,0 -13,-1 -19,-4l1 -11z"/>
  <path class="fil1" d="M1153 913c-5,-2 -10,-3 -14,-3 -14,0 -22,13 -22,26 0,12 7,26 23,26 4,0 10,-1 14,-4l1 11c-5,2 -11,3 -16,3 -21,0 -35,-16 -35,-36 0,-21 14,-36 35,-36 5,0 12,1 15,3l-1 10z"/>
  <path class="fil1" d="M1169 870l13 0 0 42 0 0c5,-7 12,-11 22,-11 18,0 26,11 26,29l0 41 -13 0 0 -35c0,-16 -3,-24 -14,-24 -14,0 -21,12 -21,28l0 32 -13 0 0 -101z"/>
  <path class="fil1" d="M1295 929c0,-10 -6,-19 -17,-19 -12,0 -17,10 -18,19l35 0zm8 38c-5,2 -10,4 -22,4 -24,0 -35,-15 -35,-37 0,-20 13,-35 32,-35 23,0 30,17 30,39l-49 0c0,14 11,23 23,23 8,0 18,-4 21,-7l0 13z"/>
  <path class="fil1" d="M1377 921l13 0c8,0 19,-4 19,-16 0,-12 -12,-16 -21,-16l-11 0 0 33zm-13 -44l25 0c19,0 35,7 35,28 0,21 -16,28 -33,28l-13 0 0 37 -13 0 0 -94z"/>
  <path class="fil1" d="M1468 962c15,0 21,-13 21,-26 0,-13 -8,-26 -21,-26 -14,0 -21,13 -21,26 0,12 7,26 21,26zm0 -61c21,0 35,15 35,36 0,20 -14,36 -35,36 -21,0 -35,-16 -35,-36 0,-21 14,-36 35,-36z"/>
  <path class="fil1" d="M1514 957c5,3 12,5 16,5 6,0 13,-2 13,-10 0,-12 -30,-11 -30,-31 0,-14 11,-21 24,-21 6,0 11,1 16,3l-1 11c-3,-2 -10,-3 -13,-3 -6,0 -12,3 -12,8 0,14 30,10 30,32 0,15 -12,21 -24,21 -6,0 -13,-1 -19,-4l1 -11z"/>
  <path class="fil1" d="M1608 912l-18 0 0 37c0,8 5,12 11,12 4,0 7,-1 9,-2l0 11c-3,1 -7,2 -11,2 -13,0 -21,-6 -21,-20l0 -40 -15 0 0 -10 15 0 0 -16 13 -4 0 20 18 0 0 10z"/>
  <polygon class="fil1" points="1661,877 1711,877 1711,888 1675,888 1675,916 1709,916 1709,928 1675,928 1675,970 1661,970 "/>
  <path class="fil1" d="M1758 962c15,0 21,-13 21,-26 0,-13 -8,-26 -21,-26 -14,0 -21,13 -21,26 0,12 7,26 21,26zm0 -61c21,0 35,15 35,36 0,20 -14,36 -35,36 -21,0 -35,-16 -35,-36 0,-21 14,-36 35,-36z"/>
  <path class="fil1" d="M1870 970l-12 0 0 -11 0 0c-4,8 -13,12 -22,12 -18,0 -26,-11 -26,-29l0 -41 13 0 0 35c0,16 3,24 14,24 14,0 21,-12 21,-28l0 -32 13 0 0 68z"/>
  <path class="fil1" d="M1892 902l12 0 0 11 0 0c4,-8 13,-12 22,-12 18,0 26,11 26,29l0 41 -13 0 0 -35c0,-16 -3,-24 -14,-24 -14,0 -21,12 -21,28l0 32 -13 0 0 -68z"/>
  <path class="fil1" d="M2002 962c14,0 20,-14 20,-25 0,-13 -7,-26 -20,-26 -14,0 -19,13 -19,25 0,11 5,26 19,26zm21 -1l0 0c-3,5 -11,11 -23,11 -21,0 -29,-18 -29,-37 0,-18 10,-35 30,-35 12,0 19,5 23,11l0 0 0 -42 13 0 0 101 -12 0 0 -10z"/>
  <path class="fil1" d="M2096 938c-3,0 -5,0 -8,0 -7,0 -24,1 -24,13 0,7 7,11 13,11 12,0 19,-8 19,-18l0 -6zm-37 -31c6,-4 14,-6 23,-6 20,0 27,10 27,28l0 28c0,8 0,11 1,13l-12 0 0 -9 0 0c-3,4 -10,10 -21,10 -15,0 -25,-6 -25,-21 0,-17 19,-22 32,-22 5,0 8,0 13,0 0,-12 -4,-18 -17,-18 -7,0 -15,3 -20,7l-1 -11z"/>
  <path class="fil1" d="M2167 912l-18 0 0 37c0,8 5,12 11,12 4,0 7,-1 9,-2l0 11c-3,1 -7,2 -11,2 -13,0 -21,-6 -21,-20l0 -40 -15 0 0 -10 15 0 0 -16 13 -4 0 20 18 0 0 10z"/>
  <path class="fil1" d="M2184 902l13 0 0 68 -13 0 0 -68zm13 -15l-14 0 0 -14 14 0 0 14z"/>
  <path class="fil1" d="M2250 962c15,0 21,-13 21,-26 0,-13 -8,-26 -21,-26 -14,0 -21,13 -21,26 0,12 7,26 21,26zm0 -61c21,0 35,15 35,36 0,20 -14,36 -35,36 -21,0 -35,-16 -35,-36 0,-21 14,-36 35,-36z"/>
  <path class="fil1" d="M2302 902l12 0 0 11 0 0c4,-8 13,-12 22,-12 18,0 26,11 26,29l0 41 -13 0 0 -35c0,-16 -3,-24 -14,-24 -14,0 -21,12 -21,28l0 32 -13 0 0 -68z"/>
 </g>
</svg>
