<?xml version="1.0" encoding="utf-8"?>
<!-- Generator: Adobe Illustrator 19.1.0, SVG Export Plug-In . SVG Version: 6.00 Build 0)  -->
<svg version="1.1" id="Layer_1" xmlns="http://www.w3.org/2000/svg" xmlns:xlink="http://www.w3.org/1999/xlink" x="0px" y="0px"
	 viewBox="0 0 176 66" style="enable-background:new 0 0 176 66;" xml:space="preserve">
<style type="text/css">
	.st0{fill:#0355A0;}
	.st1{fill:#838383;}
</style>
<g>
	<g>
		<path class="st0" d="M16.1,49.2L12.4,34l0,0L8.6,49.2H5.3L0,31.8h2.7l4.2,14.9H7l3.7-14.9h3.5l3.8,14.9l0,0l4.2-14.9h2.6
			l-5.4,17.4H16.1z"/>
		<path class="st0" d="M25.2,42.8c0-3.9,2.6-6.7,6.5-6.7c3.7,0,6.5,2.6,6.5,6.7c0,3.6-2.6,6.7-6.5,6.7
			C27.9,49.5,25.2,46.5,25.2,42.8z M35.6,42.8c0-2.5-1.5-4.8-4-4.8c-2.4,0-4,2.3-4,4.8c0,2.4,1.3,4.8,4,4.8
			C34.3,47.6,35.6,45.3,35.6,42.8z"/>
		<path class="st0" d="M41.2,49.2V36.5h2.2v2l0,0c0.6-1.4,2-2.3,3.3-2.3c0.5,0,0.9,0,1.5,0.2v2.1c-0.4-0.2-0.9-0.2-1.3-0.2
			c-2.1,0-3.5,2.1-3.5,5.2v5.8h-2.2V49.2z"/>
		<path class="st0" d="M51.8,49.2V30.5h2.3v18.7H51.8z"/>
		<path class="st0" d="M67.3,49.2v-1.8h-0.1c-0.9,1.3-2.5,2.1-4.3,2.1c-3.8,0-5.5-3.3-5.5-6.9c0-3.4,1.8-6.4,5.5-6.4
			c1.9,0,3.4,0.6,4.2,2l0,0v-7.7h2.3v18.7C69.4,49.2,67.3,49.2,67.3,49.2z M67.2,42.9c0-2.2-1.1-4.8-3.8-4.8c-2.3,0-3.5,2.1-3.5,4.6
			c0,2.8,1.4,4.9,3.5,4.9C66.1,47.6,67.2,45.1,67.2,42.9z"/>
		<path class="st0" d="M79.7,42.8c0-3.9,2.6-6.7,6.5-6.7c3.7,0,6.5,2.6,6.5,6.7c0,3.6-2.6,6.7-6.5,6.7
			C82.4,49.5,79.7,46.5,79.7,42.8z M90.1,42.8c0-2.5-1.5-4.8-4-4.8c-2.4,0-4,2.3-4,4.8c0,2.4,1.3,4.8,4,4.8
			C88.7,47.6,90.1,45.3,90.1,42.8z"/>
		<path class="st0" d="M97.2,49.2V38.4h-3v-1.9h3v-1.3c0-3.3,1.1-5,4.3-5c0.5,0,1,0.1,1.6,0.2l-0.1,1.9c-0.3-0.1-0.8-0.2-1.1-0.2
			c-1.7,0-2.3,0.9-2.3,2.8v1.6h3.4v1.9h-3.4v10.8C99.6,49.2,97.2,49.2,97.2,49.2z"/>
		<path class="st0" d="M112.6,49.2V31.8h2.5V47h7.3v2.2H112.6z"/>
		<path class="st0" d="M132.6,49.2v-1.6h-0.1c-0.9,1.3-2.3,1.9-4,1.9c-2.9,0-4.7-1.4-4.7-4c0-2.7,2.6-4.2,6.1-4.2c1,0,1.8,0,2.3,0
			c0-2.3-0.9-3.3-3.1-3.3c-1.3,0-2.7,0.5-3.7,1.3l-0.1-2c1.2-0.7,2.6-1.2,4.2-1.2c3.5,0,5.1,1.7,5.1,5.2V47c0,0.8,0,1.6,0.1,2.2
			H132.6z M132.4,43.1c0,0-1.1,0-1.5,0c-2.6,0-4.4,0.8-4.4,2.4c0,1.2,1.1,2.1,2.4,2.1c2.2,0,3.5-1.4,3.5-3.3V43.1z"/>
		<path class="st0" d="M138.6,49.2V30.5h2.3v7.7h0.1c0.8-1.3,2.2-2,4.2-2c3.6,0,5.5,2.9,5.5,6.4c0,3.6-1.7,6.9-5.5,6.9
			c-1.8,0-3.4-0.8-4.3-2.1l0,0v1.8C140.9,49.2,138.6,49.2,138.6,49.2z M148.2,42.8c0-2.8-1.3-4.7-3.5-4.7c-2.5,0-3.7,2.4-3.7,4.8
			c0,2.3,1.2,4.7,3.7,4.7C147,47.6,148.2,45.3,148.2,42.8z"/>
		<path class="st0" d="M153,42.8c0-3.9,2.6-6.7,6.5-6.7c3.7,0,6.5,2.6,6.5,6.7c0,3.6-2.6,6.7-6.5,6.7C155.7,49.5,153,46.5,153,42.8z
			 M163.4,42.8c0-2.5-1.5-4.8-4-4.8c-2.4,0-4,2.3-4,4.8c0,2.4,1.3,4.8,4,4.8C162.1,47.6,163.4,45.3,163.4,42.8z"/>
		<path class="st0" d="M169,49.2V36.5h2.2v2l0,0c0.7-1.4,2-2.3,3.3-2.3c0.5,0,0.9,0,1.5,0.2v2.1c-0.4-0.2-0.9-0.2-1.3-0.2
			c-2.1,0-3.5,2.1-3.5,5.2v5.8H169V49.2z"/>
	</g>
	<g>
		<path class="st1" d="M0.9,64.2v-9.1h4.4v0.8H1.8v3.2h3.4V60H1.8v3.5h3.7v0.8H0.9V64.2z"/>
		<path class="st1" d="M8.8,64.2l-2.2-6.6h0.9l1.8,5.7l0,0l1.9-5.7h0.9l-2.3,6.6H8.8z"/>
		<path class="st1" d="M13.3,55.8v-1.1h0.8v1.1H13.3z M13.3,64.2v-6.6h0.8v6.6H13.3z"/>
		<path class="st1" d="M20.7,64.2v-1.1l0,0c-0.5,0.9-1.1,1.2-2.1,1.2c-1.7,0.1-2.7-1.3-2.7-3.4c0-2.2,1-3.5,2.7-3.5
			c1.1,0,1.8,0.7,2.1,1.3l0,0v-4.2h0.8v9.8h-0.8V64.2z M20.7,60.9c0-1.2-0.5-2.8-2-2.8c-1.2,0-2,1-2,2.8c0,1.5,0.6,2.8,2,2.8
			C20.1,63.7,20.7,62.2,20.7,60.9z"/>
		<path class="st1" d="M28.1,64c-0.5,0.2-1.2,0.4-1.9,0.4c-1.9,0-3-1.2-3-3.5c0-2,1.1-3.5,2.8-3.5s2.6,1.2,2.6,3.4v0.4h-4.5
			c0,1.6,0.9,2.5,2.2,2.5c0.6,0,1.5-0.2,1.9-0.5L28.1,64L28.1,64z M27.7,60.5c0-1.5-0.6-2.3-1.7-2.3c-1,0-1.9,1-1.9,2.3H27.7z"/>
		<path class="st1" d="M34.6,64.2v-4c0-1.3-0.5-2-1.6-2c-1.5,0-2,1.3-2,2.4v3.7h-0.8v-5.5c0-0.4,0-0.8-0.1-1.1h0.8v1.2l0,0
			c0.4-0.9,1.1-1.3,2.1-1.3c1.6,0,2.3,1.1,2.3,2.5v4.2L34.6,64.2L34.6,64.2z"/>
		<path class="st1" d="M41.9,64.2c-0.6,0.2-1.1,0.2-1.7,0.2c-2.2,0-3.2-1.7-3.2-3.5c0-2.1,1.4-3.5,3.3-3.5c0.5,0,1,0.1,1.6,0.3
			l-0.1,0.8c-0.5-0.2-1-0.3-1.4-0.3c-1.6,0-2.5,1.2-2.5,2.8c0,1.5,0.9,2.8,2.4,2.8c0.5,0,1-0.1,1.5-0.3L41.9,64.2z"/>
		<path class="st1" d="M47.9,64c-0.5,0.2-1.2,0.4-1.9,0.4c-1.9,0-3-1.2-3-3.5c0-2,1.1-3.5,2.8-3.5c1.7,0,2.6,1.2,2.6,3.4v0.4h-4.6
			c0,1.6,0.9,2.5,2.2,2.5c0.6,0,1.5-0.2,1.9-0.5V64z M47.5,60.5c0-1.5-0.6-2.3-1.7-2.3c-1,0-1.9,1-1.9,2.3H47.5z"/>
		<path class="st1" d="M49.6,61.2v-0.9h3.2v0.9H49.6z"/>
		<path class="st1" d="M54.4,64.2v-9.8h0.8v4.2l0,0c0.3-0.7,1.1-1.3,2.1-1.3c1.8,0,2.7,1.3,2.7,3.5c0,2.1-1,3.5-2.7,3.5
			c-0.9,0-1.6-0.4-2.1-1.2l0,0v1.1C55.2,64.2,54.4,64.2,54.4,64.2z M59.2,60.9c0-1.5-0.5-2.8-2-2.8s-2,1.5-2,2.8
			c0,1.4,0.6,2.8,2,2.8C58.5,63.7,59.2,62.7,59.2,60.9z"/>
		<path class="st1" d="M65.6,64.2v-1.1l0,0c-0.4,0.8-1.2,1.2-2.1,1.2c-1.9,0-2.2-1.3-2.2-1.9c0-1.7,1.3-2.3,3.8-2.3h0.4v-0.4
			c0-1.4-0.7-1.7-1.5-1.7c-0.6,0-1.3,0.1-2,0.5v-0.8c0.5-0.2,1.4-0.5,2-0.5c1.7,0,2.3,0.8,2.3,2.5v3.4c0,0.2,0,0.7,0.1,1h-0.8V64.2z
			 M65.5,60.9h-0.4c-2.5,0-3,0.8-3,1.6c0,0.8,0.5,1.2,1.4,1.2c1,0,2-0.5,2-2.3V60.9z"/>
		<path class="st1" d="M67.9,63.3c0.5,0.2,1.1,0.4,1.7,0.4c0.9,0,1.5-0.5,1.5-1.2s-0.7-1.1-1.6-1.5c-1.3-0.6-1.6-1.1-1.6-1.8
			c0-1.3,1-1.8,2.2-1.8c0.4,0,1.1,0.1,1.6,0.3l-0.1,0.7c-0.5-0.2-1.1-0.3-1.5-0.3c-1,0-1.4,0.4-1.4,1.1c0,0.4,0.2,0.7,1.5,1.2
			c1.6,0.7,1.8,1.4,1.8,2.1c0,1.3-1.2,1.9-2.3,1.9c-0.7,0-1.3-0.1-1.8-0.3L67.9,63.3z"/>
		<path class="st1" d="M78,64c-0.5,0.2-1.2,0.4-1.9,0.4c-1.9,0-3-1.2-3-3.5c0-2,1.1-3.5,2.8-3.5c1.7,0,2.6,1.2,2.6,3.4v0.4H74
			c0,1.6,0.9,2.5,2.2,2.5c0.6,0,1.5-0.2,1.9-0.5L78,64L78,64z M77.6,60.5c0-1.5-0.6-2.3-1.7-2.3c-1,0-1.9,1-1.9,2.3H77.6z"/>
		<path class="st1" d="M84.6,64.2v-1.1l0,0c-0.5,0.9-1.1,1.2-2.1,1.2c-1.8,0-2.7-1.4-2.7-3.5c0-2.2,1-3.5,2.7-3.5
			c1.1,0,1.8,0.7,2.1,1.3l0,0v-4.2h0.8v9.8C85.4,64.2,84.6,64.2,84.6,64.2z M84.6,60.9c0-1.2-0.5-2.8-2-2.8c-1.2,0-2,1-2,2.8
			c0,1.5,0.6,2.8,2,2.8C84.1,63.7,84.6,62.2,84.6,60.9z"/>
		<path class="st1" d="M91.1,67v-9.4h0.8l-0.1,1.2l0,0c0.5-1,1.2-1.4,2.1-1.4c1.7,0,2.7,1.1,2.7,3.5c0,2.1-1,3.5-2.7,3.5
			c-1,0-1.7-0.4-2.1-1.3l0,0V67H91.1z M95.9,60.9c0-1.6-0.6-2.8-2-2.8c-1.4,0-2,1.5-2,2.8s0.5,2.8,2,2.8
			C95.3,63.7,95.9,62.6,95.9,60.9z"/>
		<path class="st1" d="M98.1,60.9c0-2,1.1-3.5,3.1-3.5c2.1,0,3.1,1.5,3.1,3.5c0,1.9-1,3.5-3.1,3.5S98.1,62.8,98.1,60.9z M103.4,60.9
			c0-1.5-0.8-2.8-2.2-2.8c-1.3,0-2.2,1.1-2.2,2.8c0,1.6,0.8,2.8,2.2,2.8C102.6,63.7,103.4,62.5,103.4,60.9z"/>
		<path class="st1" d="M105.9,64.2v-9.8h0.8v9.8H105.9z"/>
		<path class="st1" d="M108.9,55.8v-1.1h0.8v1.1H108.9z M108.9,64.2v-6.6h0.8v6.6H108.9z"/>
		<path class="st1" d="M116.2,64.2c-0.6,0.2-1.1,0.2-1.7,0.2c-2.2,0-3.2-1.7-3.2-3.5c0-2.1,1.4-3.5,3.3-3.5c0.5,0,1,0.1,1.6,0.3
			l-0.1,0.8c-0.5-0.2-1-0.3-1.4-0.3c-1.6,0-2.5,1.2-2.5,2.8c0,1.5,0.9,2.8,2.4,2.8c0.5,0,1-0.1,1.5-0.3L116.2,64.2z"/>
		<path class="st1" d="M117.2,66.2c0.2,0.1,0.4,0.1,0.6,0.1c0.9,0,1-1.1,1.3-2l-2.4-6.7h0.9l1.9,5.5l0,0l1.9-5.5h0.9l-2.7,7.7
			c-0.5,1.3-1,1.8-1.7,1.8c-0.3,0-0.6,0-0.9-0.1L117.2,66.2z"/>
		<path class="st1" d="M135.4,64.2v-4.4c0-1-0.4-1.7-1.4-1.7c-0.9,0-1.8,0.8-1.8,2.4v3.7h-0.8v-4.4c0-1-0.4-1.7-1.4-1.7
			c-1,0-1.8,1-1.8,2.4v3.7h-0.8v-5.6c0-0.3,0-0.8-0.1-1h0.8v1.1l0,0c0.5-0.9,1.1-1.3,2.1-1.3c0.9,0,1.6,0.5,1.8,1.4l0,0
			c0.3-0.9,1.2-1.4,2.1-1.4c1.4,0,2.1,1,2.1,2.2v4.6C136.2,64.2,135.4,64.2,135.4,64.2z"/>
		<path class="st1" d="M142.1,64.2v-1.1l0,0c-0.4,0.8-1.2,1.2-2.1,1.2c-1.9,0-2.2-1.3-2.2-1.9c0-1.7,1.3-2.3,3.8-2.3h0.4v-0.4
			c0-1.4-0.7-1.7-1.5-1.7c-0.7,0-1.3,0.1-2,0.5v-0.8c0.5-0.2,1.4-0.5,2-0.5c1.7,0,2.3,0.8,2.3,2.5v3.4c0,0.2,0,0.7,0.1,1h-0.8V64.2z
			 M142,60.9h-0.4c-2.5,0-3,0.8-3,1.6c0,0.8,0.5,1.2,1.4,1.2c1,0,2-0.5,2-2.3V60.9z"/>
		<path class="st1" d="M149,64.2l-3.3-3.4v3.4h-0.8v-9.8h0.8v5.8l3-2.7h1.1l-3.2,2.9l3.6,3.7L149,64.2L149,64.2z"/>
		<path class="st1" d="M151.5,55.8v-1.1h0.8v1.1H151.5z M151.5,64.2v-6.6h0.8v6.6H151.5z"/>
		<path class="st1" d="M158.9,64.2v-4c0-1.3-0.5-2-1.6-2c-1.5,0-2,1.3-2,2.4v3.7h-0.8v-5.5c0-0.4,0-0.8-0.1-1.1h0.8v1.2l0,0
			c0.4-0.9,1.1-1.3,2.1-1.3c1.6,0,2.3,1.1,2.3,2.5v4.2L158.9,64.2L158.9,64.2z"/>
		<path class="st1" d="M166.2,62.9L166.2,62.9c-0.4,0.8-1.1,1.3-2,1.3c-2,0-2.8-1.7-2.8-3.3c0-2.2,0.9-3.5,2.7-3.5
			c0.9,0,1.5,0.1,2.1,0.9l0,0v-0.8h0.8v6.1c0,2.1-1.1,3.3-3.1,3.3c-0.6,0-1.3-0.1-2-0.4l0.1-0.8c0.6,0.3,1.3,0.5,1.9,0.5
			C165.7,66.2,166.2,65,166.2,62.9L166.2,62.9z M166.2,60.9c0-1.9-0.6-2.8-2-2.8c-1.3,0-1.9,1.1-1.9,2.8c0,1.4,0.6,2.6,1.9,2.6
			C165.7,63.5,166.2,62.2,166.2,60.9z"/>
	</g>
	<g>
		<g>
			<rect x="0.9" y="0.3" class="st0" width="3.9" height="17.6"/>
			<polygon class="st0" points="21.1,0.3 21.1,2.7 30.9,2.7 20.4,16.4 20.4,18 35.6,18 36,15.6 25.5,15.6 36,1.9 36,0.3 			"/>
			<path class="st0" d="M58.5,4l2.5,6.7h-5.2L58.5,4z M57.9,0.3L49.4,18h3.4l2.1-5.3h6.9l2,5.3H68L60.9,0.4h-3V0.3z"/>
		</g>
	</g>
</g>
</svg>
